<svg xmlns="http://www.w3.org/2000/svg" viewBox="0 0 800 256" width="100%" height="100%">
  <defs>
    <linearGradient id="bidv-text-shimmer" x1="-100%" y1="0%" x2="0%" y2="0%">
      <stop offset="0%" stop-color="#FFFFFF" stop-opacity="0.85" />
      <stop offset="35%" stop-color="#FFFFFF" stop-opacity="0.85" />
      <stop offset="50%" stop-color="#FFFFFF" stop-opacity="1.0" />
      <stop offset="65%" stop-color="#FFFFFF" stop-opacity="0.85" />
      <stop offset="100%" stop-color="#FFFFFF" stop-opacity="0.85" />
      <animate attributeName="x1" values="-100%; 100%; 100%" keyTimes="0; 0.3; 1" dur="5s" repeatCount="indefinite" />
      <animate attributeName="x2" values="0%; 200%; 200%" keyTimes="0; 0.3; 1" dur="5s" repeatCount="indefinite" />
    </linearGradient>
  </defs>
  <style>
    @keyframes spin-flower {
      from { transform: rotate(0deg); }
      to { transform: rotate(360deg); }
    }
    .animated-flower {
      transform-origin: 698.00px 104.50px;
      animation: spin-flower 15s linear infinite;
    }
    .animated-text {
      filter: drop-shadow(0 2px 4px rgba(0,0,0,0.15));
    }
  </style>
  <!-- BIDV Text -->
  <path id="bidv-text" class="animated-text" d="M 391.00 51.00 L 391.00 54.00 L 393.00 60.00 L 395.00 63.00 L 395.00 65.00 L 400.00 80.00 L 402.00 83.00 L 404.00 89.00 L 404.00 91.00 L 413.00 118.00 L 415.00 121.00 L 416.00 124.00 L 416.00 126.00 L 430.00 168.00 L 432.00 171.00 L 432.00 173.00 L 437.00 188.00 L 439.00 191.00 L 440.00 194.00 L 440.00 196.00 L 448.00 220.00 L 450.00 223.00 L 450.00 225.00 L 455.00 240.00 L 458.00 246.00 L 460.00 249.00 L 463.00 252.00 L 469.00 255.00 L 510.00 254.00 L 513.00 246.00 L 513.00 243.00 L 519.00 225.00 L 521.00 222.00 L 521.00 220.00 L 524.00 211.00 L 526.00 208.00 L 526.00 206.00 L 529.00 197.00 L 531.00 194.00 L 532.00 191.00 L 532.00 189.00 L 536.00 177.00 L 538.00 174.00 L 540.00 168.00 L 540.00 166.00 L 544.00 154.00 L 546.00 151.00 L 546.00 149.00 L 551.00 134.00 L 553.00 131.00 L 553.00 129.00 L 560.00 108.00 L 562.00 105.00 L 562.00 103.00 L 565.00 94.00 L 567.00 91.00 L 567.00 89.00 L 570.00 84.00 L 570.00 82.00 L 571.00 80.00 L 573.00 78.00 L 574.00 75.00 L 576.00 72.00 L 584.00 64.00 L 590.00 60.00 L 593.00 59.00 L 596.00 56.00 L 595.00 51.00 L 559.00 51.00 L 553.00 52.00 L 547.00 55.00 L 541.00 61.00 L 539.00 64.00 L 536.00 70.00 L 512.00 142.00 L 512.00 144.00 L 488.00 216.00 L 487.00 220.00 L 485.00 222.00 L 484.00 217.00 L 478.00 197.00 L 461.00 146.00 L 459.00 143.00 L 459.00 141.00 L 433.00 63.00 L 431.00 60.00 L 431.00 58.00 L 424.00 52.00 L 420.00 51.00 Z M 231.00 52.00 L 226.00 58.00 L 226.00 255.00 L 329.00 255.00 L 338.00 253.00 L 347.00 250.00 L 357.00 245.00 L 369.00 236.00 L 374.00 231.00 L 383.00 219.00 L 384.00 216.00 L 386.00 214.00 L 390.00 206.00 L 390.00 204.00 L 392.00 201.00 L 395.00 191.00 L 397.00 182.00 L 399.00 168.00 L 399.00 136.00 L 397.00 123.00 L 395.00 114.00 L 392.00 105.00 L 390.00 102.00 L 390.00 100.00 L 387.00 94.00 L 385.00 92.00 L 384.00 89.00 L 379.00 82.00 L 374.00 76.00 L 369.00 71.00 L 364.00 67.00 L 358.00 63.00 L 348.00 58.00 L 332.00 53.00 L 316.00 51.00 L 234.00 51.00 Z M 262.00 79.00 L 312.00 79.00 L 319.00 80.00 L 327.00 82.00 L 337.00 87.00 L 341.00 90.00 L 347.00 96.00 L 352.00 103.00 L 356.00 111.00 L 360.00 124.00 L 362.00 135.00 L 363.00 146.00 L 363.00 164.00 L 362.00 174.00 L 361.00 180.00 L 359.00 188.00 L 357.00 194.00 L 352.00 204.00 L 347.00 211.00 L 341.00 217.00 L 337.00 220.00 L 327.00 225.00 L 320.00 227.00 L 261.00 226.00 Z M 171.00 52.00 L 171.00 250.00 L 172.00 252.00 L 174.00 254.00 L 176.00 255.00 L 207.00 255.00 L 207.00 60.00 L 205.00 55.00 L 202.00 52.00 L 199.00 51.00 Z M 5.00 52.00 L 2.00 54.00 L 0.00 59.00 L 0.00 247.00 L 1.00 251.00 L 5.00 255.00 L 109.00 255.00 L 118.00 253.00 L 124.00 251.00 L 132.00 247.00 L 138.00 243.00 L 147.00 234.00 L 150.00 230.00 L 155.00 220.00 L 157.00 213.00 L 158.00 207.00 L 158.00 193.00 L 157.00 187.00 L 154.00 178.00 L 151.00 172.00 L 149.00 169.00 L 138.00 158.00 L 134.00 155.00 L 126.00 151.00 L 124.00 151.00 L 121.00 150.00 L 118.00 148.00 L 121.00 147.00 L 124.00 145.00 L 126.00 145.00 L 128.00 144.00 L 130.00 142.00 L 133.00 141.00 L 138.00 137.00 L 144.00 130.00 L 145.00 127.00 L 147.00 125.00 L 147.00 123.00 L 149.00 120.00 L 150.00 117.00 L 152.00 104.00 L 152.00 98.00 L 151.00 90.00 L 149.00 83.00 L 146.00 77.00 L 142.00 71.00 L 136.00 65.00 L 132.00 62.00 L 120.00 56.00 L 114.00 54.00 L 105.00 52.00 L 95.00 51.00 L 8.00 51.00 Z M 37.00 162.00 L 93.00 162.00 L 101.00 164.00 L 109.00 168.00 L 118.00 177.00 L 121.00 183.00 L 123.00 189.00 L 123.00 202.00 L 122.00 206.00 L 118.00 214.00 L 110.00 222.00 L 107.00 224.00 L 105.00 224.00 L 102.00 226.00 L 98.00 227.00 L 36.00 226.00 Z M 37.00 79.00 L 88.00 79.00 L 94.00 80.00 L 100.00 82.00 L 104.00 84.00 L 112.00 92.00 L 115.00 100.00 L 115.00 114.00 L 114.00 119.00 L 111.00 125.00 L 109.00 128.00 L 107.00 130.00 L 103.00 133.00 L 97.00 136.00 L 87.00 138.00 L 36.00 137.00 Z" fill="url(#bidv-text-shimmer)" fill-rule="evenodd"/>
  <!-- Animated Flower Symbol -->
  <g class="animated-flower">
  <!-- Yellow Petals -->
  <path id="yellow-petals" d="M 775.00 111.00 L 772.00 108.00 L 770.00 108.00 L 767.00 111.00 L 764.00 113.00 L 750.00 120.00 L 743.00 122.00 L 739.00 122.00 L 731.00 124.00 L 730.00 126.00 L 731.00 148.00 L 730.00 157.00 L 727.00 167.00 L 724.00 172.00 L 724.00 174.00 L 721.00 180.00 L 719.00 182.00 L 717.00 181.00 L 715.00 179.00 L 710.00 176.00 L 694.00 160.00 L 692.00 156.00 L 689.00 152.00 L 683.00 152.00 L 679.00 154.00 L 671.00 156.00 L 665.00 157.00 L 637.00 156.00 L 637.00 165.00 L 638.00 170.00 L 641.00 180.00 L 643.00 184.00 L 645.00 186.00 L 646.00 189.00 L 655.00 198.00 L 659.00 201.00 L 669.00 206.00 L 676.00 208.00 L 686.00 209.00 L 694.00 208.00 L 698.00 207.00 L 701.00 205.00 L 703.00 205.00 L 707.00 203.00 L 713.00 199.00 L 724.00 188.00 L 727.00 184.00 L 733.00 172.00 L 736.00 163.00 L 738.00 153.00 L 739.00 140.00 L 739.00 137.00 L 738.00 132.00 L 740.00 130.00 L 742.00 130.00 L 752.00 127.00 L 755.00 125.00 L 757.00 125.00 L 767.00 120.00 L 773.00 116.00 L 776.00 113.00 Z M 608.00 73.00 L 603.00 80.00 L 600.00 86.00 L 598.00 92.00 L 597.00 96.00 L 597.00 111.00 L 600.00 121.00 L 604.00 129.00 L 606.00 132.00 L 615.00 141.00 L 622.00 146.00 L 630.00 150.00 L 642.00 153.00 L 658.00 153.00 L 668.00 152.00 L 678.00 150.00 L 681.00 149.00 L 684.00 147.00 L 687.00 146.00 L 691.00 147.00 L 697.00 157.00 L 713.00 173.00 L 718.00 176.00 L 721.00 171.00 L 720.00 168.00 L 715.00 165.00 L 705.00 155.00 L 698.00 145.00 L 697.00 142.00 L 695.00 140.00 L 694.00 137.00 L 691.00 136.00 L 684.00 140.00 L 675.00 143.00 L 666.00 145.00 L 642.00 145.00 L 635.00 143.00 L 635.00 140.00 L 638.00 131.00 L 646.00 115.00 L 648.00 112.00 L 650.00 110.00 L 653.00 106.00 L 654.00 104.00 L 654.00 102.00 L 652.00 100.00 L 647.00 93.00 L 646.00 90.00 L 644.00 88.00 L 641.00 82.00 L 641.00 80.00 L 639.00 77.00 L 636.00 68.00 L 635.00 64.00 L 635.00 59.00 L 634.00 57.00 L 631.00 57.00 L 630.00 58.00 L 623.00 61.00 L 617.00 65.00 L 612.00 69.00 Z M 733.00 38.00 L 728.00 41.00 L 728.00 43.00 L 731.00 51.00 L 732.00 57.00 L 731.00 85.00 L 733.00 86.00 L 735.00 86.00 L 743.00 88.00 L 752.00 91.00 L 762.00 96.00 L 764.00 98.00 L 767.00 99.00 L 772.00 103.00 L 782.00 114.00 L 780.00 116.00 L 770.00 123.00 L 765.00 125.00 L 763.00 127.00 L 761.00 128.00 L 759.00 128.00 L 756.00 130.00 L 753.00 131.00 L 751.00 131.00 L 745.00 133.00 L 743.00 135.00 L 743.00 147.00 L 742.00 156.00 L 741.00 161.00 L 738.00 171.00 L 734.00 178.00 L 734.00 180.00 L 732.00 184.00 L 734.00 184.00 L 738.00 185.00 L 743.00 187.00 L 759.00 187.00 L 767.00 185.00 L 770.00 183.00 L 772.00 183.00 L 774.00 181.00 L 777.00 180.00 L 780.00 178.00 L 789.00 169.00 L 793.00 163.00 L 794.00 161.00 L 794.00 159.00 L 796.00 156.00 L 798.00 147.00 L 798.00 134.00 L 796.00 125.00 L 794.00 119.00 L 792.00 115.00 L 790.00 113.00 L 789.00 110.00 L 785.00 105.00 L 779.00 99.00 L 770.00 92.00 L 767.00 91.00 L 765.00 89.00 L 759.00 86.00 L 757.00 86.00 L 752.00 83.00 L 749.00 82.00 L 746.00 82.00 L 741.00 80.00 L 739.00 54.00 L 735.00 38.00 Z M 799.00 75.00 L 799.00 63.00 L 798.00 58.00 L 796.00 52.00 L 793.00 46.00 L 791.00 43.00 L 778.00 30.00 L 768.00 25.00 L 762.00 23.00 L 756.00 22.00 L 748.00 22.00 L 738.00 24.00 L 732.00 26.00 L 724.00 30.00 L 722.00 32.00 L 719.00 33.00 L 711.00 39.00 L 699.00 51.00 L 694.00 58.00 L 693.00 61.00 L 691.00 63.00 L 685.00 61.00 L 682.00 59.00 L 676.00 57.00 L 666.00 55.00 L 650.00 55.00 L 650.00 59.00 L 651.00 61.00 L 663.00 62.00 L 673.00 64.00 L 685.00 68.00 L 692.00 72.00 L 694.00 72.00 L 696.00 70.00 L 700.00 64.00 L 704.00 57.00 L 718.00 43.00 L 728.00 36.00 L 734.00 33.00 L 738.00 34.00 L 739.00 36.00 L 742.00 46.00 L 744.00 58.00 L 744.00 76.00 L 748.00 78.00 L 750.00 78.00 L 756.00 80.00 L 759.00 82.00 L 761.00 82.00 L 763.00 83.00 L 765.00 85.00 L 768.00 86.00 L 782.00 96.00 L 788.00 102.00 L 789.00 100.00 L 791.00 98.00 L 795.00 90.00 L 797.00 84.00 Z M 703.00 3.00 L 696.00 1.00 L 686.00 0.00 L 678.00 1.00 L 668.00 4.00 L 662.00 7.00 L 656.00 11.00 L 648.00 19.00 L 644.00 25.00 L 641.00 31.00 L 638.00 43.00 L 638.00 54.00 L 640.00 66.00 L 642.00 73.00 L 644.00 76.00 L 644.00 78.00 L 649.00 88.00 L 653.00 94.00 L 655.00 96.00 L 658.00 100.00 L 659.00 106.00 L 654.00 111.00 L 649.00 118.00 L 644.00 128.00 L 644.00 130.00 L 642.00 133.00 L 641.00 136.00 L 641.00 138.00 L 640.00 140.00 L 642.00 141.00 L 648.00 140.00 L 648.00 138.00 L 650.00 135.00 L 650.00 133.00 L 655.00 123.00 L 659.00 117.00 L 663.00 113.00 L 668.00 107.00 L 669.00 101.00 L 662.00 94.00 L 657.00 87.00 L 651.00 75.00 L 646.00 59.00 L 646.00 52.00 L 648.00 50.00 L 659.00 50.00 L 673.00 52.00 L 681.00 55.00 L 685.00 56.00 L 687.00 56.00 L 689.00 57.00 L 691.00 56.00 L 694.00 52.00 L 696.00 48.00 L 709.00 35.00 L 719.00 28.00 L 722.00 27.00 L 727.00 24.00 L 727.00 22.00 L 714.00 9.00 L 711.00 7.00 Z" fill="#FFC72C" fill-rule="evenodd"/>
  </g>
</svg>